<svg width="26" height="19" viewBox="0 0 26 19" fill="none" xmlns="http://www.w3.org/2000/svg">
<path d="M5.85 18.6875C2.62031 18.6875 0 16.042 0 12.7812C0 10.2055 1.63312 8.01523 3.90812 7.20723C3.90406 7.09648 3.9 6.98574 3.9 6.875C3.9 3.24922 6.80875 0.3125 10.4 0.3125C12.8091 0.3125 14.9094 1.6332 16.0347 3.60195C16.6522 3.18359 17.3997 2.9375 18.2 2.9375C20.3531 2.9375 22.1 4.70117 22.1 6.875C22.1 7.37539 22.0066 7.85117 21.84 8.29414C24.2125 8.77812 26 10.8986 26 13.4375C26 16.3373 23.6722 18.6875 20.8 18.6875H5.85ZM9.05937 11.8379L12.3094 15.1191C12.6912 15.5047 13.3087 15.5047 13.6866 15.1191L16.9366 11.8379C17.3184 11.4523 17.3184 10.8289 16.9366 10.4475C16.5547 10.066 15.9372 10.0619 15.5594 10.4475L13.975 12.0471V6.54688C13.975 6.00137 13.5403 5.5625 13 5.5625C12.4597 5.5625 12.025 6.00137 12.025 6.54688V12.0471L10.4406 10.4475C10.0587 10.0619 9.44125 10.0619 9.06344 10.4475C8.68563 10.833 8.68156 11.4564 9.06344 11.8379H9.05937Z" fill="#012169"/>
</svg>
